<svg xmlns="http://www.w3.org/2000/svg" viewBox="0 0 375 501">
  <rect width="100%" height="100%" fill="white"/>
  <path d="M73 154 C60 65 93 15 153 130" fill="black" stroke="black" stroke-width="8" stroke-linejoin="round"/>
  <path d="M91 139 C82 73 104 43 141 125" fill="white" stroke="white" stroke-width="6"/>
  <path d="M223 128 C283 15 337 38 319 158" fill="black" stroke="black" stroke-width="8" stroke-linejoin="round"/>
  <path d="M241 125 C287 48 316 65 304 140" fill="white" stroke="white" stroke-width="6"/>
  <circle cx="188" cy="283" r="165" fill="white" stroke="black" stroke-width="7"/>
  <path
    d="M285 101 C200 48 75 83 48 195 C14 337 105 445 222 430 C273 424 313 394 333 354"
    fill="none"
    stroke="#ff7900"
    stroke-width="58"
    stroke-linecap="round"
  />
  <path
    d="M159 291 C165 276 211 276 218 291 C211 303 199 312 188 314 C177 312 166 303 159 291Z"
    fill="black"
  />
  <path d="M9 303 C45 299 78 300 111 311" fill="none" stroke="black" stroke-width="6" stroke-linecap="round"/>
  <path d="M10 342 C47 334 80 335 110 344" fill="none" stroke="black" stroke-width="6" stroke-linecap="round"/>
  <path d="M255 311 C288 300 321 299 358 303" fill="none" stroke="black" stroke-width="6" stroke-linecap="round"/>
  <path d="M256 344 C286 335 321 334 360 342" fill="none" stroke="black" stroke-width="6" stroke-linecap="round"/>
</svg>
