<?xml version="1.0" encoding="utf-8"?>
<!-- Generator: Adobe Illustrator 23.0.3, SVG Export Plug-In . SVG Version: 6.00 Build 0)  -->
<svg version="1.1" id="Layer_1" xmlns="http://www.w3.org/2000/svg" xmlns:xlink="http://www.w3.org/1999/xlink" x="0px" y="0px"
	 viewBox="0 0 149 150" style="enable-background:new 0 0 149 150;" xml:space="preserve">
<style type="text/css">
	.st0{fill:#00889B;}
	.st1{fill:#444444;}
</style>
<g>
	<path class="st0" d="M70.1,94.5c0,0,2.5-15-13.1-23.3c0,0,12.5-5.1,11.6-17.6c0.1,0-1.9-15.5-16.7-17.7v78.2
		C51.9,114.2,67.3,112.2,70.1,94.5z"/>
	<path class="st0" d="M4.5,5v140h140V5H4.5z M51.9,114.2H35.4V35.9h16.3h0.2h14.6c0,0,17.1,1.1,18,18.2c0,0,1.7,10.6-10.8,16.7
		c0,0,14,5.9,12.9,22c0,0-0.2,17.1-18.8,21.3L51.9,114.2L51.9,114.2z M113.8,92.8c0,0-0.2,17.1-18.8,21.3H75.8
		c0,0,18.8-1.9,21.6-19.7c0,0,2.5-15-13.1-23.3c0,0,12.5-5.1,11.6-17.6c0.1,0-1.9-15.7-17-17.7h14.8c0,0,17.1,1.1,18,18.2
		c0,0,1.7,10.6-10.8,16.7C100.9,70.9,114.9,76.8,113.8,92.8z"/>
	<path class="st1" d="M51.9,35.9h-0.2C51.8,35.9,51.9,36,51.9,35.9L51.9,35.9z"/>
</g>
</svg>
