<?xml version="1.0" encoding="utf-8"?>
<!-- Generator: Adobe Illustrator 23.0.3, SVG Export Plug-In . SVG Version: 6.00 Build 0)  -->
<svg version="1.1" id="Layer_1" xmlns="http://www.w3.org/2000/svg" xmlns:xlink="http://www.w3.org/1999/xlink" x="0px" y="0px"
	 viewBox="0 0 149 150" style="enable-background:new 0 0 149 150;" xml:space="preserve">
<style type="text/css">
	.st0{fill:#F68F2F;}
</style>
<g>
	<g>
		<path class="st0" d="M70.1,144.4c0,0.3,0.2,0.6,0.6,0.6h7.6c0.3,0,0.6-0.3,0.6-0.6V5.6c0-0.3-0.3-0.6-0.6-0.6h-7.6
			c-0.4,0-0.6,0.3-0.6,0.6V144.4z M87.6,126.9c0,0.4,0.3,0.6,0.6,0.6h7.6c0.3,0,0.6-0.3,0.6-0.6V23.1c0-0.3-0.3-0.6-0.6-0.6h-7.6
			c-0.3,0-0.6,0.3-0.6,0.6V126.9z M52.6,126.9c0,0.4,0.3,0.6,0.6,0.6h7.6c0.4,0,0.6-0.3,0.6-0.6V23.1c0-0.3-0.2-0.6-0.6-0.6h-7.6
			c-0.3,0-0.6,0.3-0.6,0.6V126.9z M4.5,78.8c0,0.3,0.3,0.6,0.6,0.6h38.2c0.3,0,0.6-0.2,0.6-0.6v-7.6c0-0.3-0.3-0.6-0.6-0.6H5.1
			c-0.3,0-0.6,0.3-0.6,0.6V78.8z M22,96.3c0,0.3,0.3,0.6,0.6,0.6h20.7c0.3,0,0.6-0.3,0.6-0.6v-7.6c0-0.3-0.3-0.6-0.6-0.6H22.6
			c-0.3,0-0.6,0.3-0.6,0.6V96.3z M105.7,70.6c-0.3,0-0.6,0.3-0.6,0.6v7.6c0,0.3,0.3,0.6,0.6,0.6h38.2c0.3,0,0.6-0.2,0.6-0.6v-7.6
			c0-0.3-0.3-0.6-0.6-0.6H105.7z M127,53.7c0-0.3-0.3-0.6-0.6-0.6h-20.7c-0.3,0-0.6,0.3-0.6,0.6v7.6c0,0.3,0.3,0.6,0.6,0.6h20.7
			c0.3,0,0.6-0.3,0.6-0.6C127,61.3,127,53.7,127,53.7z M105.1,96.3c0,0.3,0.3,0.6,0.6,0.6h20.7c0.3,0,0.6-0.3,0.6-0.6v-7.6
			c0-0.3-0.3-0.6-0.6-0.6h-20.7c-0.3,0-0.6,0.3-0.6,0.6V96.3z M22,61.3c0,0.3,0.3,0.6,0.6,0.6h20.7c0.3,0,0.6-0.3,0.6-0.6v-7.6
			c0-0.3-0.3-0.6-0.6-0.6H22.6c-0.3,0-0.6,0.3-0.6,0.6V61.3z"/>
	</g>
</g>
</svg>
