<?xml version="1.0" encoding="utf-8"?>
<!-- Generator: Adobe Illustrator 23.0.3, SVG Export Plug-In . SVG Version: 6.00 Build 0)  -->
<svg version="1.1" id="Layer_1" xmlns="http://www.w3.org/2000/svg" xmlns:xlink="http://www.w3.org/1999/xlink" x="0px" y="0px"
	 viewBox="0 0 149 150" style="enable-background:new 0 0 149 150;" xml:space="preserve">
<style type="text/css">
	.st0{fill:#76BC21;}
	.st1{fill:#006937;}
</style>
<g>
	<g>
		<g>
			<path class="st0" d="M94.8,41.3c-25.3,24.8-47.9,52.3-68.2,81.3l0,0c36.2-31.4,75.5-59.2,117.9-81.7v-0.1
				C127.9,40.2,111.4,40.3,94.8,41.3"/>
			<path class="st1" d="M11.8,139L11.8,139c22-36.1,47.4-70,77-100.3C85.2,29.5,77.9,11,77.9,11c-10,11.3-18.9,23.5-27,36.2
				c-15.8,3.6-31.3,8.1-46.4,14.1c0,0,19.1,13,28.5,19.7C25,99.4,12.5,136.7,11.8,139 M116.5,133.7L116.5,133.7
				c-5.4-20.1-10.7-40.2-16-60.3c-13,8.4-25.8,17.3-38.3,26.5C80.5,110.9,98.6,122.2,116.5,133.7"/>
		</g>
	</g>
</g>
</svg>
